# xmcd CD database file
#
# Track frame offsets:
#	150
#	14772
#	40377
#	66592
#	87547
#	112960
#	129697
#	162262
#	185622
#	218957
#
# Disc length: 3180 seconds
#
# Revision: 7
# Processed by: cddbd v1.5.2PL0 Copyright (c) Steve Scherf et al.
# Submitted via: CDex 1.81
#
DISCID=990c6a0a
DTITLE=Tropical Jazz Big Band - 02-September
DYEAR=1998
DGENRE=Jazz
TTITLE0=Mission Impossible
TTITLE1=September
TTITLE2=Obatala
TTITLE3=Caravan
TTITLE4=Azul
TTITLE5=Getaway
TTITLE6=Mi Tierra Natal
TTITLE7=Flanmingo
TTITLE8=Rendez-Vous
TTITLE9=Leyenda
EXTD=YEAR: 1998
EXTT0=
EXTT1=
EXTT2=
EXTT3=
EXTT4=
EXTT5=
EXTT6=
EXTT7=
EXTT8=
EXTT9=
PLAYORDER=
